Coordinates
version=1
nRows=24
nColumns=22
inDegrees=yes

Units are S.I. units (second, meters, Newtons, ...)
If the header above contains a line with 'inDegrees', this indicates whether rotational values are in degrees (yes) or radians (no).

endheader
time	pelvis_tilt	pelvis_list	pelvis_rotation	pelvis_tx	pelvis_ty	pelvis_tz	hip_flexion_r	hip_adduction_r	hip_rotation_r	knee_angle_r	ankle_angle_r	subtalar_angle_r	hip_flexion_l	hip_adduction_l	hip_rotation_l	knee_angle_l	ankle_angle_l	subtalar_angle_l	lumbar_extension	lumbar_bending	lumbar_rotation
      0.01000000	     -9.17448032	     -0.47906426	    -13.91066112	     -1.07451003	      0.88507132	     -0.46479748	      9.66786935	     -1.55230922	      3.29529129	     -7.55825327	     10.09920308	     -1.78727078	      5.72047628	     -5.38381091	     -8.32084705	     -7.50612426	     13.47152041	      7.20647256	      4.47873612	      1.20645925	     11.35314727
      0.02000000	     -9.16835193	     -0.47629418	    -13.93205055	     -1.07451749	      0.88506883	     -0.46478855	      9.66637150	     -1.55529621	      3.29437716	     -7.55831398	     10.10026041	     -1.78747357	      5.71639859	     -5.38150123	     -8.31400490	     -7.51758034	     13.47147767	      7.20644751	      4.48410269	      1.21377848	     11.34707011
      0.03000000	     -9.14877628	     -0.47961593	    -13.95296657	     -1.07459411	      0.88508475	     -0.46478576	      9.65620740	     -1.55363451	      3.32382221	     -7.56526417	     10.10684348	     -1.78614560	      5.72151036	     -5.38543675	     -8.29796173	     -7.56800997	     13.48800254	      7.20153367	      4.46147415	      1.22378562	     11.32740892
      0.04000000	     -9.14132848	     -0.47718625	    -13.97755718	     -1.07460148	      0.88508528	     -0.46477780	      9.65251121	     -1.55702756	      3.32187153	     -7.56404092	     10.10730335	     -1.78609054	      5.71662353	     -5.38346937	     -8.29284349	     -7.58124320	     13.49030882	      7.20081045	      4.47105547	      1.23463770	     11.32096978
      0.05000000	     -9.12220653	     -0.49751339	    -14.00618613	     -1.07465477	      0.88510248	     -0.46475944	      9.61799288	     -1.53745779	      3.35476933	     -7.53311757	     10.09963998	     -1.78015163	      5.72658005	     -5.40841836	     -8.32452167	     -7.65665543	     13.56122883	      7.17566626	      4.45189590	      1.26751936	     11.30863861
      0.06000000	     -9.11524718	     -0.49423767	    -14.03324863	     -1.07468338	      0.88510746	     -0.46474623	      9.61609719	     -1.54025804	      3.35364003	     -7.53131195	     10.09853170	     -1.78010087	      5.72208667	     -5.40561528	     -8.31878948	     -7.66731386	     13.56118543	      7.17500851	      4.46017863	      1.27796385	     11.30100276
      0.07000000	     -9.10350410	     -0.49718317	    -14.06616554	     -1.07473537	      0.88512210	     -0.46471927	      9.59765089	     -1.53632749	      3.40313629	     -7.50805056	     10.08230838	     -1.77617981	      5.72090302	     -5.41113511	     -8.33922541	     -7.69868798	     13.58347779	      7.16055422	      4.45619067	      1.29512885	     11.27930675
      0.08000000	     -9.09803716	     -0.49336448	    -14.09345451	     -1.07475964	      0.88512798	     -0.46470378	      9.59493852	     -1.54003648	      3.39965036	     -7.50327004	     10.08159170	     -1.77612642	      5.71562112	     -5.40794416	     -8.33638847	     -7.70723551	     13.58405301	      7.15966271	      4.46577623	      1.30588143	     11.27549988
      0.09000000	     -9.08178352	     -0.49276748	    -14.15335304	     -1.07476631	      0.88515621	     -0.46461895	      9.55313484	     -1.53709136	      3.47365019	     -7.44105993	     10.04665679	     -1.76719900	      5.68957191	     -5.40998046	     -8.41166764	     -7.71698870	     13.60908874	      7.12982046	      4.46435279	      1.31862199	     11.30771665
      0.10000000	     -9.07653696	     -0.48822835	    -14.17922438	     -1.07478909	      0.88516177	     -0.46459096	      9.55109334	     -1.54095584	      3.47119479	     -7.43828465	     10.04669974	     -1.76714065	      5.68268792	     -5.40675855	     -8.40989143	     -7.72243954	     13.60883399	      7.12929346	      4.47387873	      1.32776092	     11.30007577
      0.11000000	     -9.05234448	     -0.47210375	    -14.24373736	     -1.07477968	      0.88519660	     -0.46449248	      9.51120041	     -1.55525253	      3.54941634	     -7.38979303	     10.03296195	     -1.75731482	      5.63064201	     -5.38752575	     -8.49029652	     -7.69362089	     13.60680843	      7.10803718	      4.46864823	      1.32174353	     11.32825791
      0.12000000	     -9.04717208	     -0.46760868	    -14.26614544	     -1.07480627	      0.88520064	     -0.46446198	      9.51009476	     -1.55866667	      3.54786988	     -7.38778569	     10.03280662	     -1.75718901	      5.62306212	     -5.38376070	     -8.48942596	     -7.69826141	     13.60665874	      7.10765763	      4.47681996	      1.32987921	     11.32044472
      0.13000000	     -9.01819008	     -0.44564383	    -14.32521359	     -1.07481332	      0.88523515	     -0.46436946	      9.47640844	     -1.58080630	      3.62142560	     -7.35716228	     10.02791802	     -1.74839103	      5.56900127	     -5.35686151	     -8.56474866	     -7.66770475	     13.60015014	      7.09168600	      4.46461581	      1.31499189	     11.34435757
      0.14000000	     -9.01323278	     -0.44154349	    -14.34434379	     -1.07485820	      0.88523743	     -0.46433612	      9.47653650	     -1.58322833	      3.62045466	     -7.35572896	     10.02789636	     -1.74830968	      5.56379338	     -5.35417296	     -8.56294779	     -7.67180263	     13.59976951	      7.09139658	      4.46955807	      1.32163108	     11.33768795
      0.15000000	     -8.98883075	     -0.42522883	    -14.38847794	     -1.07489825	      0.88526201	     -0.46426198	      9.45886469	     -1.59890575	      3.68531343	     -7.34910323	     10.02997223	     -1.74288400	      5.52683170	     -5.33505481	     -8.61298034	     -7.65824683	     13.59546636	      7.07631564	      4.45685253	      1.31255068	     11.35335936
      0.16000000	     -8.98478156	     -0.42177574	    -14.40378578	     -1.07498458	      0.88526186	     -0.46422293	      9.46261564	     -1.59863132	      3.68442513	     -7.34621170	     10.03012588	     -1.74280392	      5.52605218	     -5.33452954	     -8.61091304	     -7.65992832	     13.59538804	      7.07594365	      4.45462856	      1.31532493	     11.34776484
      0.17000000	     -8.97527137	     -0.41923347	    -14.41928271	     -1.07507945	      0.88526822	     -0.46418245	      9.46714974	     -1.59808724	      3.71042805	     -7.35835564	     10.02843018	     -1.74178163	      5.52225663	     -5.33458140	     -8.61356200	     -7.66600913	     13.59706239	      7.07190741	      4.44547773	      1.31927987	     11.33263263
      0.18000000	     -8.97109235	     -0.41658933	    -14.42922127	     -1.07517133	      0.88526754	     -0.46414733	      9.47102605	     -1.59750221	      3.71166330	     -7.35694984	     10.02915241	     -1.74171799	      5.52372144	     -5.33525294	     -8.61166116	     -7.66868352	     13.59730469	      7.07126707	      4.44191476	      1.32224102	     11.33099313
      0.19000000	     -8.96198125	     -0.41924828	    -14.43918465	     -1.07530232	      0.88527441	     -0.46410919	      9.48058800	     -1.59072391	      3.73828126	     -7.37739668	     10.03005521	     -1.74138528	      5.53134683	     -5.34304429	     -8.60479872	     -7.69162448	     13.60043099	      7.06691369	      4.42546716	      1.32820141	     11.32752486
      0.20000000	     -8.95849882	     -0.42309850	    -14.44563866	     -1.07543841	      0.88527388	     -0.46407212	      9.49472602	     -1.58114253	      3.75143328	     -7.39511636	     10.03334903	     -1.74226258	      5.54609482	     -5.35338223	     -8.60281096	     -7.71447476	     13.60871381	      7.06205046	      4.41277294	      1.33566310	     11.32569915
      0.21000000	     -8.95615530	     -0.42179110	    -14.44572004	     -1.07554835	      0.88526964	     -0.46404300	      9.50062909	     -1.57879629	      3.75178500	     -7.39457770	     10.03401772	     -1.74249005	      5.55227315	     -5.35574382	     -8.60252751	     -7.71469922	     13.61004500	      7.06156788	      4.40557332	      1.33643328	     11.32485817
      0.22000000	     -8.94962046	     -0.42787833	    -14.44149137	     -1.07569778	      0.88527405	     -0.46402288	      9.51684228	     -1.56859689	      3.76518725	     -7.42561259	     10.03448684	     -1.74484666	      5.57301012	     -5.36728863	     -8.58941858	     -7.75073334	     13.61512823	      7.05884342	      4.38586373	      1.34293917	     11.31517501
      0.23000000	     -8.94833486	     -0.42661592	    -14.43943027	     -1.07580305	      0.88527012	     -0.46399339	      9.52305467	     -1.56605234	      3.76413908	     -7.42530332	     10.03570513	     -1.74539230	      5.57989556	     -5.36962760	     -8.59003359	     -7.75021219	     13.61698097	      7.05845801	      4.37829461	      1.34303410	     11.31419631
      0.24000000	     -8.95970149	     -0.43321531	    -14.42495943	     -1.07594452	      0.88523921	     -0.46398470	      9.56605724	     -1.55161047	      3.74063650	     -7.47552269	     10.05830303	     -1.76199698	      5.62956366	     -5.38710696	     -8.58998448	     -7.80430461	     13.64663645	      7.05281088	      4.38001134	      1.35373424	     11.29551227
